<mxfile host="Electron" agent="Mozilla/5.0 (Windows NT 10.0; Win64; x64) AppleWebKit/537.36 (KHTML, like Gecko) draw.io/26.0.4 Chrome/128.0.6613.186 Electron/32.2.5 Safari/537.36" version="26.0.4" pages="4">
  <diagram name="Breakdown" id="sDGRiHxdlJpr3QSPhySo">
    <mxGraphModel dx="1036" dy="606" grid="1" gridSize="10" guides="1" tooltips="1" connect="1" arrows="1" fold="1" page="1" pageScale="1" pageWidth="1600" pageHeight="1200" math="0" shadow="0">
      <root>
        <mxCell id="0" />
        <mxCell id="1" parent="0" />
      </root>
    </mxGraphModel>
  </diagram>
  <diagram id="OVdBWIHF8a1dPWj94JBt" name="AOV">
    <mxGraphModel dx="863" dy="505" grid="1" gridSize="10" guides="1" tooltips="1" connect="1" arrows="1" fold="1" page="1" pageScale="1" pageWidth="1600" pageHeight="1200" math="0" shadow="0">
      <root>
        <mxCell id="0" />
        <mxCell id="1" parent="0" />
        <mxCell id="nwLZ0AIHlgB_d2AmYSZM-4" style="rounded=0;orthogonalLoop=1;jettySize=auto;html=1;exitX=1;exitY=0;exitDx=0;exitDy=0;entryX=0;entryY=1;entryDx=0;entryDy=0;" edge="1" parent="1" source="nwLZ0AIHlgB_d2AmYSZM-1" target="nwLZ0AIHlgB_d2AmYSZM-3">
          <mxGeometry relative="1" as="geometry" />
        </mxCell>
        <mxCell id="nwLZ0AIHlgB_d2AmYSZM-1" value="&lt;font style=&quot;font-size: 18px;&quot;&gt;發球&lt;/font&gt;" style="ellipse;whiteSpace=wrap;html=1;aspect=fixed;" vertex="1" parent="1">
          <mxGeometry x="120" y="160" width="80" height="80" as="geometry" />
        </mxCell>
        <mxCell id="nwLZ0AIHlgB_d2AmYSZM-7" style="edgeStyle=orthogonalEdgeStyle;rounded=0;orthogonalLoop=1;jettySize=auto;html=1;exitX=0;exitY=0.5;exitDx=0;exitDy=0;entryX=1;entryY=0.5;entryDx=0;entryDy=0;" edge="1" parent="1" source="nwLZ0AIHlgB_d2AmYSZM-2" target="nwLZ0AIHlgB_d2AmYSZM-1">
          <mxGeometry relative="1" as="geometry" />
        </mxCell>
        <mxCell id="nwLZ0AIHlgB_d2AmYSZM-2" value="&lt;font style=&quot;font-size: 18px;&quot;&gt;得分&lt;/font&gt;" style="ellipse;whiteSpace=wrap;html=1;aspect=fixed;" vertex="1" parent="1">
          <mxGeometry x="360" y="160" width="80" height="80" as="geometry" />
        </mxCell>
        <mxCell id="nwLZ0AIHlgB_d2AmYSZM-5" style="rounded=0;orthogonalLoop=1;jettySize=auto;html=1;entryX=0;entryY=0;entryDx=0;entryDy=0;" edge="1" parent="1" source="nwLZ0AIHlgB_d2AmYSZM-3" target="nwLZ0AIHlgB_d2AmYSZM-2">
          <mxGeometry relative="1" as="geometry" />
        </mxCell>
        <mxCell id="nwLZ0AIHlgB_d2AmYSZM-3" value="&lt;font style=&quot;font-size: 16px;&quot;&gt;左移/右移&lt;/font&gt;" style="ellipse;whiteSpace=wrap;html=1;aspect=fixed;" vertex="1" parent="1">
          <mxGeometry x="240" y="40" width="80" height="80" as="geometry" />
        </mxCell>
        <mxCell id="nwLZ0AIHlgB_d2AmYSZM-12" style="rounded=0;orthogonalLoop=1;jettySize=auto;html=1;exitX=1;exitY=0;exitDx=0;exitDy=0;entryX=0;entryY=1;entryDx=0;entryDy=0;" edge="1" parent="1" source="nwLZ0AIHlgB_d2AmYSZM-9" target="nwLZ0AIHlgB_d2AmYSZM-10">
          <mxGeometry relative="1" as="geometry" />
        </mxCell>
        <mxCell id="nwLZ0AIHlgB_d2AmYSZM-13" style="rounded=0;orthogonalLoop=1;jettySize=auto;html=1;exitX=1;exitY=1;exitDx=0;exitDy=0;entryX=0;entryY=0;entryDx=0;entryDy=0;" edge="1" parent="1" source="nwLZ0AIHlgB_d2AmYSZM-9" target="nwLZ0AIHlgB_d2AmYSZM-11">
          <mxGeometry relative="1" as="geometry" />
        </mxCell>
        <mxCell id="nwLZ0AIHlgB_d2AmYSZM-9" value="&lt;font style=&quot;font-size: 18px;&quot;&gt;發球&lt;/font&gt;" style="ellipse;whiteSpace=wrap;html=1;aspect=fixed;" vertex="1" parent="1">
          <mxGeometry x="120" y="480" width="80" height="80" as="geometry" />
        </mxCell>
        <mxCell id="nwLZ0AIHlgB_d2AmYSZM-15" style="rounded=0;orthogonalLoop=1;jettySize=auto;html=1;exitX=1;exitY=1;exitDx=0;exitDy=0;entryX=0;entryY=0;entryDx=0;entryDy=0;" edge="1" parent="1" source="nwLZ0AIHlgB_d2AmYSZM-10" target="nwLZ0AIHlgB_d2AmYSZM-14">
          <mxGeometry relative="1" as="geometry" />
        </mxCell>
        <mxCell id="nwLZ0AIHlgB_d2AmYSZM-10" value="&lt;font style=&quot;font-size: 16px;&quot;&gt;左移&lt;/font&gt;" style="ellipse;whiteSpace=wrap;html=1;aspect=fixed;" vertex="1" parent="1">
          <mxGeometry x="280" y="360" width="80" height="80" as="geometry" />
        </mxCell>
        <mxCell id="nwLZ0AIHlgB_d2AmYSZM-16" style="rounded=0;orthogonalLoop=1;jettySize=auto;html=1;exitX=1;exitY=0;exitDx=0;exitDy=0;entryX=0;entryY=1;entryDx=0;entryDy=0;" edge="1" parent="1" source="nwLZ0AIHlgB_d2AmYSZM-11" target="nwLZ0AIHlgB_d2AmYSZM-14">
          <mxGeometry relative="1" as="geometry" />
        </mxCell>
        <mxCell id="nwLZ0AIHlgB_d2AmYSZM-11" value="&lt;font style=&quot;font-size: 16px;&quot;&gt;右移&lt;/font&gt;" style="ellipse;whiteSpace=wrap;html=1;aspect=fixed;" vertex="1" parent="1">
          <mxGeometry x="280" y="600" width="80" height="80" as="geometry" />
        </mxCell>
        <mxCell id="nwLZ0AIHlgB_d2AmYSZM-14" value="&lt;font style=&quot;font-size: 18px;&quot;&gt;得分&lt;/font&gt;" style="ellipse;whiteSpace=wrap;html=1;aspect=fixed;" vertex="1" parent="1">
          <mxGeometry x="440" y="480" width="80" height="80" as="geometry" />
        </mxCell>
      </root>
    </mxGraphModel>
  </diagram>
  <diagram id="gEWoI7JKNx2qh0vyL0tT" name="MSC">
    <mxGraphModel dx="1036" dy="606" grid="1" gridSize="10" guides="1" tooltips="1" connect="1" arrows="1" fold="1" page="1" pageScale="1" pageWidth="1600" pageHeight="1200" math="0" shadow="0">
      <root>
        <mxCell id="0" />
        <mxCell id="1" parent="0" />
      </root>
    </mxGraphModel>
  </diagram>
  <diagram id="uL6mSfalg0e5q1glWinD" name="架構圖">
    <mxGraphModel dx="1036" dy="606" grid="1" gridSize="10" guides="1" tooltips="1" connect="1" arrows="1" fold="1" page="1" pageScale="1" pageWidth="1600" pageHeight="1200" math="0" shadow="0">
      <root>
        <mxCell id="0" />
        <mxCell id="1" parent="0" />
      </root>
    </mxGraphModel>
  </diagram>
</mxfile>
